<svg width="1024" height="1024" viewBox="0 0 1024 1024" fill="none" xmlns="http://www.w3.org/2000/svg">
  <rect width="1024" height="1024" rx="200" fill="#F97316"/>
  <path d="M512 200C339.7 200 200 339.7 200 512C200 684.3 339.7 824 512 824C684.3 824 824 684.3 824 512C824 339.7 684.3 200 512 200ZM650 600H374V550H650V600ZM650 500H374V450H650V500ZM650 400H374V350H650V400Z" fill="white"/>
  <path d="M512 250C367.3 250 250 367.3 250 512C250 656.7 367.3 774 512 774C656.7 774 774 656.7 774 512C774 367.3 656.7 250 512 250ZM512 724C394.9 724 300 629.1 300 512C300 394.9 394.9 300 512 300C629.1 300 724 394.9 724 512C724 629.1 629.1 724 512 724Z" fill="white" fill-opacity="0.3"/>
</svg>
